<?xml version="1.0" encoding="UTF-8"?>
<svg id="Layer_1" xmlns="http://www.w3.org/2000/svg" version="1.1" viewBox="0 0 694.5 211.8">
  <!-- Generator: Adobe Illustrator 29.8.1, SVG Export Plug-In . SVG Version: 2.1.1 Build 2)  -->
  <defs>
    <style>
      .st0 {
        fill: #c9fd2e;
      }
    </style>
  </defs>
  <g>
    <path class="st0" d="M413.4,93.2v118.6h-101.9c-51.4,0-74.9-23.7-74.9-59.3v-59.3h57.1v59.3c0,7.9,5.1,17.6,20,17.6h42.6v-76.9h57.1Z"/>
    <path class="st0" d="M483.7,47v164.7h-57.1V47h57.1Z"/>
    <path class="st0" d="M569.5,93.2h50.1c51.4,0,74.9,26.6,74.9,59.3s-23.5,59.3-74.9,59.3h-50.1c-51.4,0-74.9-23.7-74.9-59.3s23.5-59.3,74.9-59.3ZM552,152.5c0,7.9,4.8,17.6,19.8,17.6h45.7c14.9,0,19.8-9.7,19.8-17.6s-4.8-17.6-19.8-17.6h-45.7c-14.9,0-19.8,9.7-19.8,17.6Z"/>
  </g>
  <g>
    <path class="st0" d="M350,44.7h-63.6v8h67.6v21.9h-95.4V7h95.4v21.9h-67.6v8h63.6v8Z"/>
    <path class="st0" d="M391.7,0v74.5h-25.8V0h25.8Z"/>
  </g>
  <g>
    <path class="st0" d="M96.6,120.1c-1.4.2-2.3,1.4-2.2,2.8.2,1.5,1.3,2.4,2.7,2.3,1.5-.2,2.5-1.3,2.3-2.8-.1-1.4-1.4-2.5-2.9-2.3Z"/>
    <path class="st0" d="M99,198.2c.5,0,1.3-.3,1.8-.7,2.8-1.9,5.7-3.8,8.4-5.8,1-.6,2.3-2.7.1-2.2-3.4,1.6-6.6,4.2-9.7,6.3-.6.5-1.9,1.9-.8,2.4h.2Z"/>
    <path class="st0" d="M107.8,120.2c1.4-.1,2.6-1.5,2.4-2.9-.1-1.5-1.4-2.5-2.9-2.3-1.4.1-2.4,1.3-2.3,2.7.1,1.4,1.5,2.6,2.8,2.5Z"/>
    <path class="st0" d="M113.9,200.2c-3,1.5-6.5,3.5-9.4,5.3-1.1.7-1.8,1.5-1.5,2,.6.7,2,0,2.8-.3,3-1.6,6.2-3.3,9.2-5,1.7-.9,2-2.9-.8-2h-.3Z"/>
    <path class="st0" d="M90.3,115.2c1.4-.2,2.3-1.3,2.2-2.7-.2-1.5-1.5-2.6-3.1-2.3-1.4.2-2.3,1.4-2.1,2.9.2,1.5,1.4,2.4,3,2.2Z"/>
    <path class="st0" d="M0,148c1.8,3.2,4.6,6.1,6.9,9.1.6.6,1.8,1.8,2.4,1,.2-.5,0-.7-.1-1.1-1.8-3-4.4-5.7-6.5-8.4-.5-.8-3-3-2.8-.8v.2Z"/>
    <path class="st0" d="M101.4,170.7c.9-1.7-1.1-1.4-1.9-.7-2.8,1.9-6,4-8.7,6.2-.5.4-1.1,1.1-1.1,1.7.4,1.1,2.1.1,2.8-.3,2.8-2.1,6.4-4,8.8-6.7v-.2Z"/>
    <path class="st0" d="M106.5,179.9c-.2-1.1-2.3,0-3,.3-2.9,1.8-5.8,3.7-8.7,5.6-1.1.6-2.1,2.7-.2,2.6,3.8-1.4,7.2-4.9,10.6-7,.5-.4,1.1-.9,1.3-1.4h0Z"/>
    <path class="st0" d="M124.7,123c1,0,1.7-.9,1.6-1.9-.1-1.2-1-1.9-2-1.8-1,.1-1.7,1-1.6,2,0,1,1,1.8,2.1,1.7Z"/>
    <path class="st0" d="M86.3,127.1c-.4,0-.6.2-.9.4-.5.4-.8,1-.7,1.7.1,1,1,1.7,2.1,1.6,1-.1,1.7-1,1.6-2.1,0-.5-.4-1-.8-1.3-.4-.3-.9-.4-1.4-.4Z"/>
    <path class="st0" d="M79.5,116.3c-.9.1-1.5,1-1.4,2,0,1,1,1.7,2,1.6,1-.1,1.7-.9,1.6-1.9-.1-1.1-1.1-1.8-2.2-1.7Z"/>
    <path class="st0" d="M118.4,113.2c1.4-.1,2.6-1.5,2.4-2.9,0-.2,0-.3,0-.4-.3-1.2-1.5-2-2.9-1.9-1.2.1-2,.9-2.2,1.9,0,.3,0,.5,0,.8.1,1.4,1.5,2.6,2.8,2.5Z"/>
    <path class="st0" d="M135,113.4c-1.1,0-1.8.9-1.8,2,0,1.1.9,1.9,2,1.8,1,0,1.8-.9,1.7-1.9,0-1.1-.9-1.8-2-1.8Z"/>
    <path class="st0" d="M225.1,210.9l-27.9-48.5c16-8.8,26.8-23.9,26.8-45.9,0-36.9-30.5-54.9-65.6-54.9,3.4,5.5,6.1,11.5,8.2,18.1,2.9,9.6,3.4,19,.9,28.2-1.1,3.9-2.7,7.7-4.9,11.5-4.6,8-11.4,13.8-19.2,18.6-7.2,4.4-15,7.5-23.2,9.5-4.7,1.2-9.5,2.1-14.2,3.1-10.1.7-20.1.2-30-.8-9.5-.9-18.9-2-28.4-2.7-4.6-.4-9.3,0-14,0-.3,0-.7.4-1,.7-.7.6-1.2,1.5-2,2-6.7,3.8-13.4,7.5-20,11.3-3.2,1.8-6.4,3.7-9.5,5.5-.3.2-.7.4-1,.6v44h101.3c-1.9-4.1-3.8-8.2-5.7-12.2-3.8-7.9-7.6-15.9-11.5-23.7-.7-1.3-.9-2.6-.8-3.8,0-1.3.5-2.5,1.1-3.8.2-.4.5-.7.9-.9,3.2-1.7,6.4-3.6,9.7-5,3.4-1.5,6.4,0,8,3.5,1,2.1,1.9,4.2,2.9,6.3,5.8,12.6,11.6,25.3,17.4,37.9.3.6.7,1.2,1,1.8h98.9v-.2c0,0,1.8,0,1.8,0Z"/>
    <path class="st0" d="M102.9,63.4c1-.1,1.5-.9,1.5-1.9,0,0,0-.1,0-.2,0,0,0,0,0,0h-3.7c0,0,0,.2,0,.2,0,0,0,.1,0,.2.1,1.1,1.1,1.8,2.2,1.7Z"/>
    <path class="st0" d="M99.2,81.2c1.5-.2,2.3-1.3,2.1-2.8-.1-1.4-1.5-2.4-2.9-2.3-1.4.1-2.3,1.4-2.1,2.8.2,1.6,1.3,2.5,2.9,2.3Z"/>
    <path class="st0" d="M88.5,87.5c1.3-.2,2.4-1.6,2.2-3-.2-1.4-1.5-2.5-3-2.4-1.3.1-2.4,1.6-2.2,3,.2,1.4,1.6,2.6,2.9,2.4Z"/>
    <path class="st0" d="M82.4,77.3c1,0,1.7-1,1.6-2-.1-1.1-1-1.8-2.1-1.7-1,.1-1.7,1-1.6,2,0,1.1,1,1.8,2.1,1.7Z"/>
    <path class="st0" d="M81.4,101.8c.2,1.5,1.4,2.4,3,2.2,1.4-.2,2.3-1.3,2.2-2.7-.2-1.5-1.5-2.6-3.1-2.3-1.4.2-2.3,1.4-2.1,2.9Z"/>
    <path class="st0" d="M78,93.5c1.5-.2,2.5-1.3,2.3-2.8-.1-1.4-1.5-2.5-2.8-2.3-1.5.2-2.5,1.5-2.4,2.9.2,1.4,1.4,2.4,2.9,2.2Z"/>
    <path class="st0" d="M92.5,69.9c1,0,1.7-1,1.6-2-.1-1.1-1-1.8-2.1-1.7-1,.1-1.7,1-1.6,2,0,1.1,1,1.8,2.1,1.7Z"/>
    <path class="st0" d="M104.6,105.7c-.2-2-2-3.5-4-3.3-2,.2-3.4,1.9-3.2,3.9.2,2.1,1.9,3.5,3.8,3.4,2.1-.2,3.6-1.9,3.4-3.9Z"/>
    <path class="st0" d="M90.9,95.9c.2,2,2,3.4,4.2,3.1,1.9-.3,3.2-2,3-4.1-.2-1.9-1.9-3.2-3.9-3-2.1.2-3.5,2-3.3,4.1Z"/>
    <path class="st0" d="M73.5,109.6c1-.1,1.7-1,1.5-2-.1-1-1.1-1.8-2.1-1.7-1,.1-1.7,1.1-1.6,2.1.1,1,1.1,1.7,2.1,1.6Z"/>
    <path class="st0" d="M10.5,142.6c1.3,2.3,3.2,4.9,4.7,7.2.7,1,2.3,3.7,3.4,3.2.6-.7-.2-2-.6-2.8-1.8-2.9-3.7-5.9-5.7-8.8-1.1-1.7-3-1.7-1.9.9v.2Z"/>
    <path class="st0" d="M101.3,89.7c.2,2,2,3.4,4.2,3.1,2-.2,3.4-2,3.2-4-.2-1.9-2.1-3.5-4.1-3.3-2,.3-3.5,2.1-3.3,4.1Z"/>
    <path class="st0" d="M62.1,131.2c-4-3.3-7-7.5-8.3-12.6-.4-1.6-.6-3.3-1.1-4.9-.2-.5-.4-.9-.8-.9-.7-.1-1.4.8-1.7,1.4-3.3,5.3-6.7,10.5-10,15.8-.5.8-.9,1.7-.6,2.6.5,1.5,2.2,1.5,3.5,1.5,5.8-.2,11.8,0,17.7,0,2.4.3,3.7-.9,1.5-2.7l-.2-.2Z"/>
    <path class="st0" d="M144.1,109.1c0,.3.1.6.3.8.3.6,1,1,1.7.9.7,0,1.2-.4,1.5-.9.2-.3.3-.7.3-1.2-.1-1-1.1-1.8-2.2-1.6-1,.1-1.6.9-1.5,2Z"/>
    <path class="st0" d="M114.2,129.1c.9,0,1.5-.8,1.6-1.7,0,0,0-.2,0-.3-.1-1-1-1.8-2-1.7-1.1.1-1.7.9-1.6,1.9,0,0,0,0,0,0,.1,1,1,1.8,2,1.7Z"/>
    <path class="st0" d="M133.7,90.4c1.4-.2,2.5-1.4,2.4-2.8-.1-1.4-1.5-2.6-2.9-2.5-1.5.1-2.5,1.4-2.3,2.9.2,1.6,1.3,2.5,2.8,2.4Z"/>
    <path class="st0" d="M136.9,98.7c.2,1.6,1.3,2.5,2.8,2.4,1.4-.2,2.5-1.4,2.4-2.8-.1-1.4-1.5-2.6-2.9-2.5-1.5.1-2.5,1.4-2.3,2.9Z"/>
    <path class="st0" d="M18.8,132.6c.7-.4,1.4-.9,2.1-1.4.3-.2.8-.5,1.1-.4,2,.6,2.6-.9,3.5-2.1,6-8.2,10.5-17.2,14.8-26.3,4-8.5,8.1-16.9,12.5-25.2,3-5.6,6.6-10.8,10.6-15.7,0,0,.1-.2.2-.2H0v81.7c.3-.2.7-.4,1-.6,5.9-3.3,11.8-6.6,17.8-9.9Z"/>
    <path class="st0" d="M143.8,83.1c1-.1,1.7-1,1.6-2-.1-1-1-1.7-2.1-1.6-1,.1-1.7,1-1.6,1.9.1,1.1,1,1.8,2.1,1.7Z"/>
    <path class="st0" d="M137.2,72.5c.9,0,1.8-1,1.7-2,0-1.1-.9-1.8-2-1.7-1.1,0-1.8.9-1.7,2,0,1,.9,1.7,2,1.7Z"/>
    <path class="st0" d="M109.6,75.2c1.5-.2,2.5-1.4,2.3-2.9-.2-1.4-1.6-2.5-3-2.3-1.3.2-2.4,1.6-2.3,3,.2,1.4,1.5,2.4,2.9,2.3Z"/>
    <path class="st0" d="M103.4,135.2c1-.1,1.7-1,1.6-2-.1-1.2-.9-1.8-2.1-1.7-1.1.1-1.8.9-1.7,2,.1,1.2,1,1.9,2.1,1.8Z"/>
    <path class="st0" d="M150.3,94.4c1-.1,1.8-1,1.6-2-.1-1.1-1.1-2-2.2-1.8-1,.1-1.7,1.1-1.5,2.2.1,1,1,1.7,2,1.6Z"/>
    <path class="st0" d="M126.1,104.8c.2,1.4,1.5,2.4,3,2.3,1.3-.1,2.4-1.4,2.2-2.8-.2-1.5-1.4-2.6-2.9-2.4-1.5.2-2.5,1.4-2.4,2.9Z"/>
    <path class="st0" d="M116.5,86.3c2-.2,3.4-2,3.2-4-.2-1.9-2.1-3.5-4.1-3.3-2,.3-3.5,2.1-3.3,4.1.2,2,2,3.4,4.2,3.1Z"/>
    <path class="st0" d="M111.9,103.5c2.1-.2,3.4-1.6,3.2-3.7-.2-2.2-1.8-3.6-3.9-3.5-2,.1-3.3,1.9-3.1,4,.2,2.1,1.7,3.3,3.8,3.2Z"/>
    <path class="st0" d="M120.1,68.9c1.5-.2,2.4-1.3,2.3-2.7-.2-1.6-1.3-2.6-2.8-2.4-1.5.2-2.5,1.3-2.3,2.9.2,1.4,1.4,2.4,2.8,2.2Z"/>
    <path class="st0" d="M126.6,79.5c1.5-.1,2.4-1.2,2.3-2.8-.1-1.5-1.2-2.5-2.7-2.4-1.4.1-2.5,1.3-2.4,2.8,0,1.5,1.3,2.6,2.8,2.4Z"/>
    <path class="st0" d="M126,93.6c-.2-2-2-3.6-4-3.4-1.8.2-3.5,2-3.3,3.8.2,2.1,1.9,3.6,4.1,3.4,2.1-.2,3.4-1.7,3.2-3.8Z"/>
  </g>
</svg>